<svg width="20" height="20" viewBox="0 0 20 20" fill="none" xmlns="http://www.w3.org/2000/svg">
  <path d="M5.27744 6.91585C7.8859 4.36138 12.1141 4.36138 14.7259 6.91585L15.0398 7.22293C15.1714 7.35115 15.1714 7.557 15.0398 7.68523L13.9667 8.73806C13.9026 8.80217 13.7946 8.80217 13.7305 8.73806L13.2985 8.31625C11.4797 6.53454 8.52705 6.53454 6.70821 8.31625L6.24591 8.76843C6.1818 8.83254 6.07382 8.83254 6.0097 8.76843L4.93325 7.7156C4.80164 7.58737 4.80164 7.38152 4.93325 7.25329L5.27744 6.91585ZM16.9463 9.089L17.9013 10.0237C18.0329 10.152 18.0329 10.3578 17.9013 10.486L13.5921 14.7075C13.4605 14.8357 13.2513 14.8357 13.1197 14.7075L10.0591 11.711C10.0253 11.6806 9.97469 11.6806 9.94095 11.711L6.88369 14.7075C6.75208 14.8357 6.54287 14.8357 6.41126 14.7075L2.0987 10.4894C1.9671 10.3612 1.9671 10.1553 2.0987 10.0271L3.05367 9.09238C3.18528 8.96415 3.3945 8.96415 3.5261 9.09238L6.58673 12.0889C6.62048 12.1193 6.6711 12.1193 6.70484 12.0889L9.7621 9.09238C9.8937 8.96415 10.1029 8.96415 10.2345 9.09238L13.2952 12.0889C13.3289 12.1193 13.3795 12.1193 13.4133 12.0889L16.4739 9.09238C16.6021 8.96077 16.8147 8.96077 16.9463 9.089Z" fill="#3A99FB"/>
</svg>
