<svg width="18" height="16" viewBox="0 0 18 16" fill="none" xmlns="http://www.w3.org/2000/svg">
    <g clip-path="url(#clip0_157_70075)">
        <path d="M17.0501 0L9.56055 5.41867L10.9533 2.22527L17.0501 0Z" fill="#E17726"/>
        <path d="M0.421875 0.00585938L6.50246 2.22513L7.82492 5.46033L0.421875 0.00585938Z" fill="#E27625"/>
        <path d="M14.0358 11.5234L17.346 11.585L16.1892 15.4278L12.1499 14.3404L14.0358 11.5234Z" fill="#E27625"/>
        <path d="M3.41878 11.5234L5.2976 14.3404L1.26512 15.4279L0.115234 11.585L3.41878 11.5234Z" fill="#E27625"/>
        <path d="M7.64504 4.63672L7.78038 8.90892L3.73242 8.72885L4.88381 7.03032L4.8984 7.01399L7.64504 4.63672Z" fill="#E27625"/>
        <path d="M9.7674 4.58984L12.556 7.01491L12.5705 7.03118L13.7219 8.72971L9.6748 8.90971L9.7674 4.58984Z" fill="#E27625"/>
        <path d="M5.41587 11.5371L7.62618 13.221L5.05859 14.4331L5.41587 11.5371Z" fill="#E27625"/>
        <path d="M12.0386 11.5352L12.3886 14.4315L9.82812 13.2192L12.0386 11.5352Z" fill="#E27625"/>
        <path d="M9.88477 13.0605L12.483 14.2907L10.0661 15.4137L10.0912 14.6715L9.88477 13.0605Z" fill="#D5BFB2"/>
        <path d="M7.5689 13.0625L7.37056 14.6608L7.38685 15.4143L4.96436 14.2921L7.5689 13.0625Z" fill="#D5BFB2"/>
        <path d="M6.81865 9.4668L7.4976 10.862L5.18604 10.1999L6.81865 9.4668Z" fill="#233447"/>
        <path d="M10.6359 9.4668L12.2762 10.1998L9.95703 10.8617L10.6359 9.4668Z" fill="#233447"/>
        <path d="M5.59265 11.5215L5.21901 14.5242L3.21631 11.5872L5.59265 11.5215Z" fill="#CC6228"/>
        <path d="M11.8623 11.5215L14.2387 11.5872L12.2285 14.5243L11.8623 11.5215Z" fill="#CC6228"/>
        <path d="M13.7804 8.55859L12.051 10.282L10.7175 9.68619L10.0791 10.9985L9.66064 8.74186L13.7804 8.55859Z" fill="#CC6228"/>
        <path d="M3.67334 8.55859L7.79391 8.74193L7.37534 10.9985L6.73682 9.68639L5.41048 10.2821L3.67334 8.55859Z" fill="#CC6228"/>
        <path d="M3.55664 8.20508L5.51332 10.1465L5.5811 12.0631L3.55664 8.20508Z" fill="#E27525"/>
        <path d="M13.8997 8.20117L11.8716 12.066L11.9479 10.146L13.8997 8.20117Z" fill="#E27525"/>
        <path d="M7.69834 8.32422L7.77709 8.80889L7.97168 10.0162L7.84656 13.7246L7.25509 10.7456L7.25488 10.7148L7.69834 8.32422Z" fill="#E27525"/>
        <path d="M9.75527 8.31641L10.1999 10.7137L10.1997 10.7445L9.6067 13.731L9.58324 12.984L9.49072 9.99321L9.75527 8.31641Z" fill="#E27525"/>
        <path d="M12.1218 10.0703L12.0557 11.7355L9.99149 13.308L9.57422 13.0197L10.0419 10.664L12.1218 10.0703Z" fill="#F5841F"/>
        <path d="M5.33984 10.0703L7.41257 10.664L7.8803 13.0197L7.46303 13.308L5.39875 11.7353L5.33984 10.0703Z" fill="#F5841F"/>
        <path d="M4.56934 13.9238L7.21016 15.1473L7.19897 14.6248L7.41988 14.4352H10.0336L10.2626 14.6242L10.2457 15.1462L12.8698 13.9269L11.5929 14.9586L10.0489 15.9955H7.39875L5.85579 14.9544L4.56934 13.9238Z" fill="#C0AC9D"/>
        <path d="M9.69594 12.8984L10.0693 13.1563L10.2881 14.8632L9.97147 14.6018H7.48446L7.17383 14.8685L7.38546 13.1564L7.75896 12.8984H9.69594Z" fill="#161616"/>
        <path d="M16.5555 0.150391L17.4546 2.78752L16.8931 5.45399L17.2929 5.75552L16.7519 6.15912L17.1585 6.46619L16.6201 6.94559L16.9507 7.17966L16.0734 8.18139L12.4755 7.15706L12.4443 7.14072L9.85156 5.00219L16.5555 0.150391Z" fill="#763E1A"/>
        <path d="M0.899046 0.150391L7.60309 5.00219L5.01027 7.14072L4.97912 7.15706L1.38116 8.18139L0.503864 7.17966L0.834137 6.94579L0.296046 6.46619L0.701864 6.15952L0.152727 5.75472L0.567614 5.45299L0 2.78766L0.899046 0.150391Z" fill="#763E1A"/>
        <path d="M12.2992 6.93359L16.1114 8.01893L17.35 11.7513H14.0824L11.8311 11.779L13.4684 8.65846L12.2992 6.93359Z" fill="#F5841F"/>
        <path d="M5.15522 6.93359L3.98583 8.65846L5.62335 11.779L3.37301 11.7513H0.111328L1.3429 8.01893L5.15522 6.93359Z" fill="#F5841F"/>
        <path d="M11.1396 2.2071L10.0732 5.02303L9.84702 8.82703L9.76043 10.0194L9.75361 13.0652H7.70052L7.69384 10.0251L7.60698 8.82603L7.38061 5.02303L6.31445 2.20703L11.1396 2.2071Z" fill="#F5841F"/>
    </g>
    <defs>
        <clipPath id="clip0_157_70075">
            <rect width="17.4545" height="16" fill="white"/>
        </clipPath>
    </defs>
</svg>
